<svg id="visual" viewBox="0 0 900 600" width="900" height="600" xmlns="http://www.w3.org/2000/svg" xmlns:xlink="http://www.w3.org/1999/xlink" version="1.1"><path d="M0 163L82 211L164 217L245 145L327 235L409 169L491 229L573 121L655 103L736 253L818 157L900 205L900 0L818 0L736 0L655 0L573 0L491 0L409 0L327 0L245 0L164 0L82 0L0 0Z" fill="#00cc8e"></path><path d="M0 295L82 301L164 271L245 259L327 337L409 295L491 283L573 187L655 205L736 343L818 229L900 289L900 203L818 155L736 251L655 101L573 119L491 227L409 167L327 233L245 143L164 215L82 209L0 161Z" fill="#00b98a"></path><path d="M0 397L82 403L164 415L245 325L327 391L409 385L491 427L573 289L655 361L736 475L818 325L900 415L900 287L818 227L736 341L655 203L573 185L491 281L409 293L327 335L245 257L164 269L82 299L0 293Z" fill="#00a784"></path><path d="M0 439L82 451L164 475L245 409L327 445L409 445L491 517L573 355L655 415L736 517L818 391L900 475L900 413L818 323L736 473L655 359L573 287L491 425L409 383L327 389L245 323L164 413L82 401L0 395Z" fill="#00957c"></path><path d="M0 601L82 601L164 601L245 601L327 601L409 601L491 601L573 601L655 601L736 601L818 601L900 601L900 473L818 389L736 515L655 413L573 353L491 515L409 443L327 443L245 407L164 473L82 449L0 437Z" fill="#038373"></path></svg>